# Blender v2.82 (sub 7) OBJ File: 'muzzleflash.blend'
# www.blender.org
mtllib muzzleflash_cone.mtl
o sphere10
v 0.382683 -0.000000 0.192275
v -0.382683 -0.000000 0.192275
v 0.000000 -0.382683 0.192275
v 0.707107 -0.000000 0.042701
v -0.000000 0.707107 0.042702
v -0.000000 0.382683 0.192275
v 0.000000 -0.707107 0.042701
v -0.707107 -0.000000 0.042701
v 0.923880 0.000000 -0.181151
v -0.000000 0.923880 -0.181151
v 0.000000 -0.923880 -0.181151
v -0.923880 0.000000 -0.181151
vt 0.692745 0.516744
vt 0.307544 0.516744
vt 0.500144 0.720680
vt 0.849334 0.516744
vt 0.500144 0.886486
vt 0.500144 0.720680
vt 0.500144 0.886486
vt 0.150955 0.516744
vt 0.943899 0.516744
vt 0.500144 0.986617
vt 0.500144 0.986617
vt 0.056390 0.516744
vn 0.2057 -0.0000 0.9786
vn -0.2057 0.0000 0.9786
vn -0.0000 -0.2774 0.9608
vn 0.5686 0.0000 0.8226
vn 0.0000 0.5686 0.8226
vn -0.0000 0.2774 0.9608
vn 0.0000 -0.5686 0.8226
vn -0.5686 -0.0000 0.8226
vn 0.7184 -0.0000 0.6957
vn 0.0000 0.7184 0.6957
vn 0.0000 -0.7184 0.6957
vn -0.7184 -0.0000 0.6957
usemtl sphere10_auv
s 1
f 1/1/1 2/2/2 3/3/3
f 1/1/1 4/4/4 5/5/5 6/6/6
f 3/3/3 7/7/7 4/4/4 1/1/1
f 2/2/2 8/8/8 7/7/7 3/3/3
f 6/6/6 2/2/2 1/1/1
f 6/6/6 5/5/5 8/8/8 2/2/2
f 4/4/4 9/9/9 10/10/10 5/5/5
f 7/7/7 11/11/11 9/9/9 4/4/4
f 8/8/8 12/12/12 11/11/11 7/7/7
f 5/5/5 10/10/10 12/12/12 8/8/8
