# Blender v2.82 (sub 7) OBJ File: 'Rock2.blend'
# www.blender.org
mtllib Rock2.mtl
o Cylinder
v -0.008240 -1.000000 -0.680135
v 0.763304 -1.000000 -0.599463
v 1.300434 -1.000000 0.200063
v 1.007541 -1.000000 0.907170
v -0.000000 -1.000000 1.000000
v -0.973276 -1.000000 0.886542
v -1.010746 -1.000000 0.346455
v -0.640878 -1.000000 -0.308311
v 0.141281 0.058954 -1.090121
v -0.392677 0.462458 -0.859410
v 0.113524 0.865962 -0.563149
v 0.912113 0.058954 -0.770832
v 0.514032 0.865962 -0.186291
v 1.231402 0.058954 0.000000
v 0.399641 0.865962 0.296644
v 0.912113 0.058954 0.770832
v -0.223468 1.033831 0.400158
v -0.036280 0.234145 0.958699
v -0.894035 0.462458 0.350976
v -0.689153 0.058954 1.002644
vt 0.750000 0.490000
vt 0.919706 0.419706
vt 0.990000 0.250000
vt 0.919706 0.080294
vt 0.750000 0.010000
vt 0.580294 0.080294
vt 0.510000 0.250000
vt 0.580294 0.419706
vt 0.125000 0.500000
vt 0.125000 0.550000
vt 0.000000 0.550000
vt 0.000000 0.500000
vt 0.250000 0.500000
vt 0.250000 0.550000
vt 0.375000 0.500000
vt 0.375000 0.550000
vt 0.500000 0.500000
vt 0.500000 0.550000
vt 0.500000 0.600000
vt 0.375000 0.600000
vt 0.625000 0.500000
vt 0.625000 0.550000
vt 0.625000 0.600000
vt 0.750000 0.500000
vt 0.750000 0.550000
vt 0.750000 0.600000
vt 0.875000 0.500000
vt 0.875000 0.550000
vt 0.875000 0.600000
vt 1.000000 0.500000
vt 1.000000 0.550000
vt 1.000000 0.600000
vt 0.000000 0.000000
vt 0.000000 0.000000
vt 0.000000 0.000000
vt 0.000000 0.000000
vt 0.000000 0.000000
vt 0.000000 0.000000
vn -0.1325 -0.7495 -0.6485
vn 0.4364 -0.7042 -0.5600
vn 0.7987 -0.6017 -0.0013
vn 0.5098 -0.5576 0.6550
vn 0.0420 -0.6740 0.7375
vn -0.5875 -0.5444 0.5987
vn -0.7821 -0.6189 -0.0730
vn -0.5785 -0.6818 -0.4476
vn -0.5193 0.4205 -0.7440
vn -0.0217 0.0588 -0.9980
vn -0.8592 0.5043 0.0865
vn -0.5366 0.2600 0.8028
vn 0.0127 0.3816 0.9242
vn -0.2147 0.9280 0.3045
vn 0.6052 0.3722 0.7036
vn 0.4475 0.7976 0.4043
vn 0.9389 0.3342 -0.0825
vn 0.5456 0.8288 -0.1241
vn 0.6256 0.2022 -0.7534
vn 0.0544 0.8648 -0.4990
usemtl None
s 1
f 1/1/1 2/2/2 3/3/3 4/4/4 5/5/5 6/6/6 7/7/7 8/8/8
f 8/9/8 10/10/9 9/11/10 1/12/1
f 7/13/7 19/14/11 10/10/9 8/9/8
f 6/15/6 20/16/12 19/14/11 7/13/7
f 5/17/5 18/18/13 20/16/12 6/15/6
f 18/18/13 17/19/14 19/20/11 20/16/12
f 4/21/4 16/22/15 18/18/13 5/17/5
f 16/22/15 15/23/16 17/19/14 18/18/13
f 3/24/3 14/25/17 16/22/15 4/21/4
f 14/25/17 13/26/18 15/23/16 16/22/15
f 2/27/2 12/28/19 14/25/17 3/24/3
f 12/28/19 11/29/20 13/26/18 14/25/17
f 1/30/1 9/31/10 12/28/19 2/27/2
f 9/31/10 10/32/9 11/29/20 12/28/19
f 13/33/18 17/34/14 15/35/16
f 13/33/18 11/36/20 17/34/14
f 11/36/20 19/37/11 17/34/14
f 11/36/20 10/38/9 19/37/11
